<svg width="18" height="18" viewBox="0 0 18 18" fill="none" xmlns="http://www.w3.org/2000/svg">
<path d="M16.875 8.96655H1.125C0.504738 8.96655 0 9.47129 0 10.0916C0 10.7118 0.504738 11.2166 1.125 11.2166H16.875C17.4953 11.2166 18 10.7118 18 10.0916C18 9.47129 17.4953 8.96655 16.875 8.96655Z" fill="black"/>
<path d="M16.9785 10.4809C16.7753 10.4239 16.5712 10.5394 16.515 10.7389L16.4857 10.8416H1.51498L1.485 10.7389C1.42874 10.5394 1.22326 10.4254 1.02149 10.4809C0.821983 10.5378 0.707233 10.7456 0.764257 10.9444L1.79774 14.5623C2.11798 15.6836 3.15601 16.4666 4.32151 16.4666H13.6777C14.844 16.4666 15.8812 15.6836 16.2015 14.5623L17.235 10.9444C17.2928 10.7456 17.1772 10.5378 16.9785 10.4809ZM4.32225 14.9666C3.82275 14.9666 3.37724 14.6313 3.24073 14.1506L2.75399 12.4451C2.69701 12.2456 2.81249 12.0386 3.01123 11.9816C3.21222 11.9246 3.41848 12.0408 3.47473 12.2396L3.96147 13.9451C4.00798 14.1048 4.15571 14.2173 4.32221 14.2173C4.52921 14.2173 4.69722 14.3853 4.69722 14.5923C4.69726 14.7993 4.52924 14.9666 4.32225 14.9666Z" fill="black"/>
<path d="M5.04221 15.7556C4.85698 15.6649 4.63271 15.7376 4.53895 15.9236L3.78896 17.4236C3.69671 17.6089 3.7717 17.8339 3.95698 17.9269C4.01171 17.9539 4.06874 17.9666 4.12499 17.9666C4.26224 17.9666 4.39425 17.8909 4.46024 17.7589L5.21023 16.2589C5.30248 16.0736 5.22745 15.8486 5.04221 15.7556Z" fill="black"/>
<path d="M14.2109 17.4244L13.461 15.9244C13.368 15.7384 13.143 15.6641 12.9577 15.7564C12.7725 15.8494 12.6974 16.0744 12.7897 16.2596L13.5397 17.7597C13.6057 17.8909 13.7377 17.9667 13.8749 17.9667C13.9312 17.9667 13.9882 17.9539 14.0429 17.9277C14.2282 17.8346 14.3032 17.6096 14.2109 17.4244Z" fill="black"/>
<path d="M15.0638 0.0334473C14.6813 0.0334473 14.3213 0.182686 14.0505 0.453459L12.8603 1.64371C12.714 1.78996 12.714 2.02772 12.8603 2.17397C13.0065 2.32022 13.2443 2.32022 13.3906 2.17397L14.5808 0.984459C14.709 0.855471 14.8808 0.784209 15.0675 0.784209C15.444 0.784209 15.75 1.09021 15.75 1.4667V9.3417C15.75 9.5487 15.918 9.71671 16.125 9.71671C16.332 9.71671 16.5 9.5487 16.5008 9.34096V1.46596C16.5008 0.676209 15.8588 0.0334473 15.0638 0.0334473Z" fill="black"/>
<path d="M13.7655 2.01864L13.0155 1.26865C12.93 1.18315 12.8108 1.14339 12.6893 1.16364L10.8143 1.47115C10.6763 1.49365 10.563 1.59114 10.5188 1.72315C10.4745 1.85517 10.5083 2.00215 10.6058 2.10189L12.8558 4.41939C12.9271 4.49364 13.0253 4.5334 13.1243 4.5334C13.1596 4.5334 13.1956 4.52817 13.2308 4.51765C13.3643 4.47867 13.4655 4.36842 13.4925 4.2319L13.8675 2.35692C13.8922 2.23464 13.854 2.10787 13.7655 2.01864Z" fill="black"/>
<path d="M8.88969 4.57685C8.74344 4.4306 8.50568 4.4306 8.35943 4.57685L7.60944 5.32684C7.46319 5.47309 7.46319 5.71085 7.60944 5.8571C7.68295 5.92984 7.77893 5.96662 7.87494 5.96662C7.97095 5.96662 8.06693 5.92988 8.1397 5.8571L8.88969 5.10711C9.03594 4.96083 9.03594 4.7231 8.88969 4.57685Z" fill="#A8A8A8"/>
<path d="M10.3898 6.07685C10.2436 5.9306 10.0058 5.9306 9.85956 6.07685L9.10957 6.82684C8.96332 6.97309 8.96332 7.21085 9.10957 7.3571C9.18308 7.42984 9.27905 7.46662 9.37507 7.46662C9.47108 7.46662 9.56706 7.42988 9.63983 7.3571L10.3898 6.60711C10.5361 6.46086 10.5361 6.2231 10.3898 6.07685Z" fill="#A8A8A8"/>
<path d="M11.1397 3.82685C10.9934 3.6806 10.7557 3.6806 10.6094 3.82685L9.85944 4.57684C9.71319 4.72309 9.71319 4.96085 9.85944 5.1071C9.93296 5.17984 10.0289 5.21662 10.1249 5.21662C10.221 5.21662 10.3169 5.17988 10.3897 5.1071L11.1397 4.35711C11.286 4.21086 11.286 3.9731 11.1397 3.82685Z" fill="#A8A8A8"/>
</svg>
