<svg width="25" height="25" viewBox="0 0 25 25" fill="none" xmlns="http://www.w3.org/2000/svg">
<path d="M18.3463 16.1368C19.5766 14.4569 20.3124 12.3933 20.3124 10.1563C20.3124 4.55634 15.7561 6.10352e-05 10.1562 6.10352e-05C4.55623 6.10352e-05 0 4.55634 0 10.1563C0 15.7562 4.55628 20.3125 10.1562 20.3125C12.3933 20.3125 14.457 19.5766 16.137 18.3463L22.7905 24.9999L25 22.7905C25 22.7904 18.3463 16.1368 18.3463 16.1368ZM10.1562 17.1875C6.27897 17.1875 3.12501 14.0335 3.12501 10.1563C3.12501 6.27904 6.27897 3.12507 10.1562 3.12507C14.0335 3.12507 17.1874 6.27904 17.1874 10.1563C17.1874 14.0335 14.0334 17.1875 10.1562 17.1875Z" fill="black"/>
</svg>
